<?xml version="1.0" standalone="no"?>
<!DOCTYPE svg PUBLIC "-//W3C//DTD SVG 20010904//EN"
 "http://www.w3.org/TR/2001/REC-SVG-20010904/DTD/svg10.dtd">
<svg version="1.0" xmlns="http://www.w3.org/2000/svg"
 width="520.000000pt" height="520.000000pt" viewBox="0 0 520.000000 520.000000"
 preserveAspectRatio="xMidYMid meet">
<metadata>
Created by potrace 1.14, written by Peter Selinger 2001-2017
</metadata>
<g transform="translate(0.000000,520.000000) scale(0.100000,-0.100000)"
fill="#000000" stroke="none">
<path d="M2021 3727 c-107 -41 -164 -186 -96 -244 48 -42 124 -25 155 36 17
32 4 86 -25 110 -33 25 -31 31 6 21 67 -19 113 -68 111 -119 0 -15 -46 -138
-102 -272 -125 -300 -207 -513 -250 -644 -28 -86 -33 -117 -36 -220 -3 -119 4
-164 40 -284 36 -122 154 -298 253 -378 26 -21 57 -46 67 -55 28 -26 143 -91
201 -115 28 -12 95 -31 150 -43 55 -11 118 -30 141 -41 l41 -19 54 24 c30 14
66 27 80 29 56 10 223 58 258 74 139 64 302 213 385 351 93 155 127 284 122
462 -3 104 -7 127 -45 240 -22 69 -45 134 -50 145 -5 11 -39 97 -76 190 -37
94 -73 184 -80 200 -8 17 -21 48 -30 70 -9 22 -37 90 -62 150 -25 61 -45 123
-45 138 1 54 49 102 116 117 l35 8 -35 -33 c-48 -46 -45 -103 10 -147 24 -20
77 -23 107 -8 50 27 57 115 15 177 -72 105 -219 120 -307 32 -35 -35 -59 -97
-59 -154 0 -14 18 -78 40 -142 22 -65 40 -122 40 -129 0 -16 -148 -72 -254
-95 -147 -32 -298 -31 -469 6 -34 7 -187 62 -207 75 -13 8 -9 28 28 137 23 70
42 144 42 163 0 58 -43 135 -90 165 -50 31 -129 41 -179 22z m362 -627 l37
-12 0 -614 0 -615 -22 7 c-32 9 -117 50 -155 74 l-33 20 0 610 0 609 68 -33
c37 -18 84 -39 105 -46z m756 -1146 c-11 -14 -136 -76 -176 -89 l-23 -6 0 616
c0 578 1 616 18 621 9 3 55 22 102 43 l85 37 3 -604 c1 -434 -1 -609 -9 -618z
m-962 626 c0 -324 -2 -590 -4 -590 -9 0 -96 97 -122 134 -62 93 -84 179 -81
311 3 124 4 139 19 195 11 42 184 540 188 540 0 0 1 -265 0 -590z m1061 440
c147 -416 149 -423 151 -583 2 -128 -12 -188 -64 -282 -31 -55 -87 -123 -126
-153 -16 -12 -17 31 -17 580 0 326 3 586 6 578 3 -8 25 -71 50 -140z m-658 35
c19 -1 45 -3 58 -4 l22 -1 0 -616 0 -617 -72 7 c-40 3 -86 10 -103 14 l-30 8
-1 605 c0 332 1 609 3 615 3 8 16 9 46 2 23 -5 58 -11 77 -13z m325 -594 c0
-336 -2 -611 -5 -610 -3 0 -18 -5 -34 -11 -16 -6 -61 -13 -100 -17 l-71 -5 0
610 c0 336 2 613 5 615 3 3 30 8 60 12 30 3 73 10 95 14 22 4 42 6 45 5 3 -1
6 -277 5 -613z"/>
</g>
</svg>
