<svg width="39" height="39" viewBox="0 0 39 39" fill="none" xmlns="http://www.w3.org/2000/svg">
<g clip-path="url(#clip0_0_1)">
<path d="M30.9998 19.0673C30.9998 12.954 26.0746 7.99854 19.9998 7.99854C13.9223 7.99991 8.99707 12.954 8.99707 19.0687C8.99707 24.592 13.0203 29.1708 18.2783 30.0013V22.2669H15.4871V19.0687H18.2811V16.628C18.2811 13.8547 19.9242 12.3229 22.4363 12.3229C23.6408 12.3229 24.8989 12.5388 24.8989 12.5388V15.2613H23.5116C22.1462 15.2613 21.7199 16.1152 21.7199 16.991V19.0673H24.7697L24.2829 22.2655H21.7186V29.9999C26.9766 29.1694 30.9998 24.5907 30.9998 19.0673Z" fill="#B5B5B5"/>
</g>
<circle cx="19.5" cy="19.5" r="19" stroke="#B5B5B5"/>
<defs>
<clipPath id="clip0_0_1">
<rect width="22" height="22" fill="white" transform="translate(9 8)"/>
</clipPath>
</defs>
</svg>
