<svg width="22" height="22" viewBox="0 0 22 22" fill="none" xmlns="http://www.w3.org/2000/svg">
<g clip-path="url(#clip0_278_217)">
<path d="M21.9997 11.0673C21.9997 4.95404 17.0744 -0.00146484 10.9997 -0.00146484C4.9222 -8.98436e-05 -0.00305176 4.95404 -0.00305176 11.0687C-0.00305176 16.592 4.0202 21.1708 9.2782 22.0013V14.2669H6.48695V11.0687H9.28095V8.62804C9.28095 5.85466 10.9241 4.32291 13.4362 4.32291C14.6407 4.32291 15.8988 4.53878 15.8988 4.53878V7.26129H14.5114C13.1461 7.26129 12.7198 8.11516 12.7198 8.99104V11.0673H15.7696L15.2828 14.2655H12.7184V21.9999C17.9764 21.1694 21.9997 16.5907 21.9997 11.0673Z" fill="#B5B5B5"/>
</g>
<defs>
<clipPath id="clip0_278_217">
<rect width="22" height="22" fill="white"/>
</clipPath>
</defs>
</svg>
