<svg width="39" height="39" viewBox="0 0 39 39" fill="none" xmlns="http://www.w3.org/2000/svg">
<path fill-rule="evenodd" clip-rule="evenodd" d="M14.8432 9.977C15.9185 9.9275 16.2613 9.9165 19.0003 9.9165C21.7393 9.9165 22.0822 9.92842 23.1565 9.977C24.2308 10.0256 24.9642 10.197 25.6058 10.4454C26.2777 10.6993 26.8873 11.0963 27.3915 11.6096C27.9048 12.1128 28.3008 12.7215 28.5538 13.3943C28.8032 14.036 28.9737 14.7693 29.0232 15.8418C29.0727 16.9189 29.0837 17.2618 29.0837 19.9998C29.0837 22.7388 29.0717 23.0817 29.0232 24.1569C28.9746 25.2294 28.8032 25.9628 28.5538 26.6044C28.3008 27.2773 27.9042 27.887 27.3915 28.391C26.8873 28.9043 26.2777 29.3003 25.6058 29.5533C24.9642 29.8027 24.2308 29.9732 23.1583 30.0227C22.0822 30.0722 21.7393 30.0832 19.0003 30.0832C16.2613 30.0832 15.9185 30.0713 14.8432 30.0227C13.7707 29.9741 13.0374 29.8027 12.3957 29.5533C11.7228 29.3003 11.1132 28.9037 10.6092 28.391C10.0962 27.8875 9.6992 27.2781 9.44591 26.6053C9.19749 25.9637 9.02699 25.2303 8.97749 24.1578C8.92799 23.0808 8.91699 22.7379 8.91699 19.9998C8.91699 17.2608 8.92891 16.918 8.97749 15.8437C9.02608 14.7693 9.19749 14.036 9.44591 13.3943C9.69957 12.7216 10.0969 12.1122 10.6101 11.6087C11.1134 11.0958 11.7224 10.6988 12.3948 10.4454C13.0365 10.197 13.7698 10.0265 14.8423 9.977H14.8432ZM23.0749 11.792C22.0116 11.7434 21.6926 11.7333 19.0003 11.7333C16.3081 11.7333 15.9891 11.7434 14.9257 11.792C13.9422 11.8369 13.4087 12.001 13.053 12.1394C12.5827 12.3228 12.2463 12.54 11.8934 12.8929C11.5589 13.2184 11.3014 13.6146 11.1399 14.0525C11.0015 14.4082 10.8374 14.9417 10.7925 15.9253C10.7439 16.9886 10.7338 17.3076 10.7338 19.9998C10.7338 22.6921 10.7439 23.0111 10.7925 24.0744C10.8374 25.058 11.0015 25.5915 11.1399 25.9472C11.3012 26.3844 11.5588 26.7813 11.8934 27.1068C12.2188 27.4413 12.6157 27.6989 13.053 27.8603C13.4087 27.9987 13.9422 28.1628 14.9257 28.2077C15.9891 28.2563 16.3072 28.2663 19.0003 28.2663C21.6935 28.2663 22.0116 28.2563 23.0749 28.2077C24.0585 28.1628 24.592 27.9987 24.9477 27.8603C25.4179 27.6769 25.7543 27.4597 26.1072 27.1068C26.4418 26.7813 26.6994 26.3844 26.8607 25.9472C26.9992 25.5915 27.1632 25.058 27.2082 24.0744C27.2567 23.0111 27.2668 22.6921 27.2668 19.9998C27.2668 17.3076 27.2567 16.9886 27.2082 15.9253C27.1632 14.9417 26.9992 14.4082 26.8607 14.0525C26.6774 13.5823 26.4602 13.2458 26.1072 12.8929C25.7818 12.5584 25.3856 12.3009 24.9477 12.1394C24.592 12.001 24.0585 11.8369 23.0749 11.792ZM17.7124 23.1083C18.4317 23.4077 19.2326 23.4481 19.9783 23.2226C20.7241 22.9971 21.3684 22.5197 21.8013 21.8719C22.2342 21.2241 22.4287 20.4461 22.3517 19.6709C22.2747 18.8956 21.9309 18.1711 21.3791 17.6211C21.0273 17.2695 20.6019 17.0003 20.1336 16.8329C19.6653 16.6654 19.1657 16.6039 18.6708 16.6527C18.1758 16.7016 17.6979 16.8595 17.2713 17.1152C16.8447 17.3709 16.4802 17.718 16.2039 18.1315C15.9275 18.545 15.7463 19.0147 15.6733 19.5066C15.6003 19.9986 15.6372 20.5006 15.7815 20.9766C15.9258 21.4525 16.1738 21.8906 16.5077 22.2592C16.8415 22.6278 17.253 22.9178 17.7124 23.1083ZM15.3355 16.335C15.8168 15.8537 16.3881 15.472 17.0169 15.2115C17.6457 14.951 18.3197 14.817 19.0003 14.817C19.6809 14.817 20.3549 14.951 20.9837 15.2115C21.6125 15.472 22.1839 15.8537 22.6652 16.335C23.1464 16.8163 23.5282 17.3876 23.7887 18.0164C24.0491 18.6453 24.1832 19.3192 24.1832 19.9998C24.1832 20.6805 24.0491 21.3544 23.7887 21.9832C23.5282 22.612 23.1464 23.1834 22.6652 23.6647C21.6932 24.6366 20.3749 25.1827 19.0003 25.1827C17.6257 25.1827 16.3075 24.6366 15.3355 23.6647C14.3635 22.6927 13.8175 21.3744 13.8175 19.9998C13.8175 18.6253 14.3635 17.307 15.3355 16.335ZM25.3327 15.5888C25.4519 15.4763 25.5474 15.341 25.6134 15.191C25.6795 15.0409 25.7147 14.8791 25.7171 14.7152C25.7195 14.5513 25.689 14.3885 25.6274 14.2366C25.5657 14.0847 25.4742 13.9466 25.3583 13.8307C25.2424 13.7148 25.1043 13.6233 24.9524 13.5616C24.8005 13.5 24.6377 13.4695 24.4738 13.4719C24.3099 13.4743 24.1481 13.5095 23.998 13.5756C23.848 13.6416 23.7127 13.7371 23.6002 13.8563C23.3814 14.0883 23.2616 14.3964 23.2662 14.7152C23.2709 15.034 23.3996 15.3385 23.6251 15.5639C23.8505 15.7894 24.155 15.9181 24.4738 15.9228C24.7926 15.9274 25.1007 15.8076 25.3327 15.5888Z" fill="#B5B5B5"/>
<circle cx="19.5" cy="19.5" r="19" stroke="#B5B5B5"/>
</svg>
