<svg width="22" height="22" viewBox="0 0 22 22" fill="none" xmlns="http://www.w3.org/2000/svg">
<path fill-rule="evenodd" clip-rule="evenodd" d="M6.843 0.977004C7.91825 0.927504 8.26108 0.916504 11.0001 0.916504C13.7391 0.916504 14.0819 0.928421 15.1562 0.977004C16.2306 1.02559 16.9639 1.197 17.6056 1.44542C18.2775 1.69934 18.8871 2.09625 19.3912 2.60959C19.9046 3.11284 20.3006 3.7215 20.5536 4.39434C20.8029 5.036 20.9734 5.76934 21.0229 6.84184C21.0724 7.91892 21.0834 8.26175 21.0834 10.9998C21.0834 13.7388 21.0715 14.0817 21.0229 15.1569C20.9743 16.2294 20.8029 16.9628 20.5536 17.6044C20.3006 18.2773 19.9039 18.887 19.3912 19.391C18.8871 19.9043 18.2775 20.3003 17.6056 20.5533C16.9639 20.8027 16.2306 20.9732 15.1581 21.0227C14.0819 21.0722 13.7391 21.0832 11.0001 21.0832C8.26108 21.0832 7.91825 21.0713 6.843 21.0227C5.7705 20.9741 5.03717 20.8027 4.3955 20.5533C3.72259 20.3003 3.11292 19.9037 2.60891 19.391C2.09593 18.8875 1.69895 18.2781 1.44566 17.6053C1.19725 16.9637 1.02675 16.2303 0.977248 15.1578C0.927748 14.0808 0.916748 13.7379 0.916748 10.9998C0.916748 8.26084 0.928665 7.918 0.977248 6.84367C1.02583 5.76934 1.19725 5.036 1.44566 4.39434C1.69933 3.72158 2.09661 3.11221 2.60983 2.60867C3.11312 2.0958 3.72218 1.69883 4.39458 1.44542C5.03625 1.197 5.76958 1.0265 6.84208 0.977004H6.843ZM15.0747 2.792C14.0113 2.74342 13.6923 2.73334 11.0001 2.73334C8.30783 2.73334 7.98883 2.74342 6.9255 2.792C5.94192 2.83692 5.40842 3.001 5.05275 3.13942C4.5825 3.32275 4.24608 3.54 3.89317 3.89292C3.55862 4.21838 3.30116 4.6146 3.13966 5.0525C3.00125 5.40817 2.83716 5.94167 2.79225 6.92525C2.74366 7.98859 2.73358 8.30759 2.73358 10.9998C2.73358 13.6921 2.74366 14.0111 2.79225 15.0744C2.83716 16.058 3.00125 16.5915 3.13966 16.9472C3.301 17.3844 3.55858 17.7813 3.89317 18.1068C4.21858 18.4413 4.6155 18.6989 5.05275 18.8603C5.40842 18.9987 5.94192 19.1628 6.9255 19.2077C7.98883 19.2563 8.30692 19.2663 11.0001 19.2663C13.6932 19.2663 14.0113 19.2563 15.0747 19.2077C16.0582 19.1628 16.5918 18.9987 16.9474 18.8603C17.4177 18.6769 17.7541 18.4597 18.107 18.1068C18.4416 17.7813 18.6992 17.3844 18.8605 16.9472C18.9989 16.5915 19.163 16.058 19.2079 15.0744C19.2565 14.0111 19.2666 13.6921 19.2666 10.9998C19.2666 8.30759 19.2565 7.98859 19.2079 6.92525C19.163 5.94167 18.9989 5.40817 18.8605 5.0525C18.6772 4.58225 18.4599 4.24584 18.107 3.89292C17.7815 3.5584 17.3853 3.30095 16.9474 3.13942C16.5918 3.001 16.0582 2.83692 15.0747 2.792ZM9.71217 14.1083C10.4314 14.4077 11.2323 14.4481 11.9781 14.2226C12.7239 13.9971 13.3682 13.5197 13.8011 12.8719C14.2339 12.2241 14.4285 11.4461 14.3515 10.6709C14.2745 9.89557 13.9307 9.17106 13.3788 8.62109C13.0271 8.26952 12.6017 8.00033 12.1334 7.83289C11.6651 7.66545 11.1655 7.60392 10.6705 7.65274C10.1756 7.70155 9.69764 7.8595 9.27107 8.11521C8.8445 8.37091 8.47993 8.71802 8.20361 9.13153C7.92729 9.54505 7.74609 10.0147 7.67305 10.5066C7.60002 10.9986 7.63697 11.5006 7.78124 11.9766C7.92552 12.4525 8.17352 12.8906 8.50741 13.2592C8.8413 13.6278 9.25276 13.9178 9.71217 14.1083ZM7.33525 7.335C7.81652 6.85373 8.38788 6.47197 9.01669 6.2115C9.6455 5.95104 10.3195 5.81698 11.0001 5.81698C11.6807 5.81698 12.3547 5.95104 12.9835 6.2115C13.6123 6.47196 14.1836 6.85373 14.6649 7.335C15.1462 7.81628 15.528 8.38763 15.7884 9.01644C16.0489 9.64526 16.1829 10.3192 16.1829 10.9998C16.1829 11.6805 16.0489 12.3544 15.7884 12.9832C15.528 13.612 15.1462 14.1834 14.6649 14.6647C13.6929 15.6366 12.3747 16.1827 11.0001 16.1827C9.6255 16.1827 8.30722 15.6366 7.33525 14.6647C6.36327 13.6927 5.81722 12.3744 5.81722 10.9998C5.81722 9.62526 6.36327 8.30698 7.33525 7.335ZM17.3324 6.58884C17.4517 6.47633 17.5472 6.34105 17.6132 6.19098C17.6792 6.04092 17.7145 5.87913 17.7169 5.71519C17.7193 5.55125 17.6887 5.38851 17.6271 5.23658C17.5655 5.08465 17.474 4.94664 17.358 4.83071C17.2421 4.71477 17.1041 4.62328 16.9522 4.56165C16.8002 4.50001 16.6375 4.46948 16.4736 4.47187C16.3096 4.47426 16.1478 4.50952 15.9978 4.57556C15.8477 4.6416 15.7124 4.73708 15.5999 4.85634C15.3811 5.08828 15.2613 5.39637 15.266 5.71519C15.2706 6.03401 15.3993 6.33848 15.6248 6.56394C15.8503 6.78941 16.1547 6.91813 16.4736 6.92278C16.7924 6.92743 17.1005 6.80764 17.3324 6.58884Z" fill="#B5B5B5"/>
</svg>
