<svg width="64" height="64" viewBox="0 0 64 64" fill="none" xmlns="http://www.w3.org/2000/svg">
<path d="M10.0114 23.4251C11.5726 16.7694 16.7694 11.5726 23.4251 10.0114L24.6922 9.71418C29.4988 8.5867 34.5012 8.5867 39.3078 9.71418L40.5749 10.0114C47.2306 11.5726 52.4274 16.7694 53.9886 23.4251L54.2858 24.6922C55.4133 29.4988 55.4133 34.5012 54.2858 39.3078L53.9886 40.5749C52.4274 47.2306 47.2306 52.4274 40.5749 53.9886L39.3078 54.2858C34.5012 55.4133 29.4988 55.4133 24.6922 54.2858L23.4251 53.9886C16.7694 52.4274 11.5726 47.2306 10.0114 40.5749L9.71419 39.3078C8.5867 34.5012 8.5867 29.4988 9.71419 24.6922L10.0114 23.4251Z" stroke="white" stroke-width="3"/>
<path d="M37.7647 28.9884C39.8562 30.3269 39.8562 33.6731 37.7647 35.0116L30.7059 39.5289C28.6144 40.8674 26 39.1943 26 36.5174L26 27.4826C26 24.8057 28.6144 23.1326 30.7059 24.4711L37.7647 28.9884Z" stroke="white" stroke-width="1.5"/>
</svg>
