<svg width="60" height="60" viewBox="0 0 60 60" fill="none" xmlns="http://www.w3.org/2000/svg">
<path d="M14.8623 58.4702C19.2034 58.4702 22.7226 54.951 22.7226 50.6099C22.7226 46.2687 19.2034 42.7495 14.8623 42.7495C10.5211 42.7495 7.00195 46.2687 7.00195 50.6099C7.00195 54.951 10.5211 58.4702 14.8623 58.4702Z" stroke="white" stroke-width="2.99905" stroke-miterlimit="1.5" stroke-linecap="round" stroke-linejoin="round"/>
<path d="M44.2031 53.6529C48.5443 53.6529 52.0634 50.1336 52.0634 45.7925C52.0634 41.4513 48.5443 37.9321 44.2031 37.9321C39.862 37.9321 36.3428 41.4513 36.3428 45.7925C36.3428 50.1336 39.862 53.6529 44.2031 53.6529Z" stroke="white" stroke-width="2.99905" stroke-miterlimit="1.5" stroke-linecap="round" stroke-linejoin="round"/>
<path d="M19.021 43.914V15.8074C19.021 13.6516 20.4028 11.7387 22.4491 11.0608C27.7704 9.29798 38.108 5.87411 44.8595 3.63833C46.369 3.13798 48.0272 3.38641 49.3248 4.3071C50.6223 5.2271 51.4041 6.70989 51.4307 8.30076C51.6391 20.7169 52.0609 45.7912 52.0609 45.7912" stroke="white" stroke-width="3.0035" stroke-miterlimit="1.5" stroke-linecap="round" stroke-linejoin="round"/>
<path d="M28.5132 24.3071L42.7237 19.9878" stroke="white" stroke-width="3.0035" stroke-miterlimit="1.5" stroke-linecap="round" stroke-linejoin="round"/>
</svg>
