<svg width="39" height="39" viewBox="0 0 39 39" fill="none" xmlns="http://www.w3.org/2000/svg">
<path d="M33.0002 11.9469C32.0439 12.3594 31.0033 12.6563 29.9314 12.7719C31.0443 12.1108 31.8777 11.0663 32.2752 9.83439C31.2309 10.4556 30.0869 10.8912 28.8939 11.1219C28.3953 10.5888 27.7923 10.1642 27.1224 9.87441C26.4525 9.58462 25.7301 9.4359 25.0002 9.43751C22.0471 9.43751 19.6721 11.8313 19.6721 14.7688C19.6721 15.1813 19.7221 15.5938 19.8033 15.9906C15.3814 15.7594 11.4377 13.6469 8.81582 10.4125C8.33809 11.2285 8.08774 12.1576 8.09082 13.1031C8.09082 14.9531 9.03145 16.5844 10.4658 17.5438C9.62052 17.5105 8.79502 17.2781 8.05645 16.8656V16.9313C8.05645 19.5219 9.8877 21.6688 12.3283 22.1625C11.8701 22.2815 11.3987 22.3424 10.9252 22.3438C10.5783 22.3438 10.2502 22.3094 9.91895 22.2625C10.5939 24.375 12.5596 25.9094 14.9002 25.9594C13.0689 27.3938 10.7752 28.2375 8.28457 28.2375C7.8377 28.2375 7.4252 28.2219 6.99707 28.1719C9.35957 29.6875 12.1627 30.5625 15.1814 30.5625C24.9814 30.5625 30.3439 22.4438 30.3439 15.3969C30.3439 15.1656 30.3439 14.9344 30.3283 14.7031C31.3658 13.9438 32.2752 13.0031 33.0002 11.9469Z" fill="#B5B5B5"/>
<circle cx="19.5" cy="19.5" r="19" stroke="#B5B5B5"/>
</svg>
