<svg width="32" height="32" viewBox="0 0 32 32" fill="none" xmlns="http://www.w3.org/2000/svg">
<path d="M29.0001 7.94689C28.0438 8.35939 27.0032 8.65626 25.9313 8.77189C27.0442 8.11075 27.8775 7.06626 28.2751 5.83439C27.2308 6.4556 26.0868 6.89121 24.8938 7.12189C24.3952 6.58885 23.7922 6.1642 23.1223 5.87441C22.4524 5.58462 21.73 5.4359 21.0001 5.43751C18.0469 5.43751 15.672 7.83126 15.672 10.7688C15.672 11.1813 15.722 11.5938 15.8032 11.9906C11.3813 11.7594 7.43757 9.64689 4.8157 6.41251C4.33797 7.2285 4.08762 8.15759 4.0907 9.10314C4.0907 10.9531 5.03132 12.5844 6.4657 13.5438C5.6204 13.5105 4.79489 13.2781 4.05632 12.8656V12.9313C4.05632 15.5219 5.88757 17.6688 8.3282 18.1625C7.86995 18.2815 7.39853 18.3424 6.92507 18.3438C6.5782 18.3438 6.25007 18.3094 5.91882 18.2625C6.59382 20.375 8.55945 21.9094 10.9001 21.9594C9.06882 23.3938 6.77507 24.2375 4.28445 24.2375C3.83757 24.2375 3.42507 24.2219 2.99695 24.1719C5.35945 25.6875 8.16257 26.5625 11.1813 26.5625C20.9813 26.5625 26.3438 18.4438 26.3438 11.3969C26.3438 11.1656 26.3438 10.9344 26.3282 10.7031C27.3657 9.94376 28.2751 9.00314 29.0001 7.94689Z" fill="#B5B5B5"/>
</svg>
